<svg width="62" height="61" viewBox="0 0 62 61" fill="none" xmlns="http://www.w3.org/2000/svg">
<rect x="0.5" width="61" height="61" rx="30.5" fill="#4481DD" fill-opacity="0.41"/>
<path d="M15.75 22.0278V18.6389C15.75 17.7401 16.107 16.8781 16.7426 16.2426C17.3781 15.607 18.2401 15.25 19.1389 15.25H22.5278M39.4722 15.25H42.8611C43.7599 15.25 44.6219 15.607 45.2574 16.2426C45.893 16.8781 46.25 17.7401 46.25 18.6389V22.0278M46.25 38.9722V42.3611C46.25 43.2599 45.893 44.1219 45.2574 44.7574C44.6219 45.393 43.7599 45.75 42.8611 45.75H39.4722M22.5278 45.75H19.1389C18.2401 45.75 17.3781 45.393 16.7426 44.7574C16.107 44.1219 15.75 43.2599 15.75 42.3611V38.9722M22.5278 30.5H39.4722" stroke="#F9F9F9" stroke-width="3.38889" stroke-linecap="round" stroke-linejoin="round"/>
</svg>
